<?xml version="1.0" encoding="UTF-8" standalone="no"?><!DOCTYPE svg PUBLIC "-//W3C//DTD SVG 1.1//EN" "http://www.w3.org/Graphics/SVG/1.1/DTD/svg11.dtd"><svg width="100%" height="100%" viewBox="0 0 1000 1000" version="1.1" xmlns="http://www.w3.org/2000/svg" xmlns:xlink="http://www.w3.org/1999/xlink" xml:space="preserve" xmlns:serif="http://www.serif.com/" style="fill-rule:evenodd;clip-rule:evenodd;stroke-linejoin:round;stroke-miterlimit:2;"><rect id="Artboard1" x="0" y="0" width="1000" height="1000" style="fill:none;"/><path d="M821.58,0.102c30.733,1.055 67.973,-0.972 118.024,39.351c51.018,41.102 57.901,102.846 59.031,112.981c2.603,23.349 0.714,617.605 0.543,671.31c-0.462,145.228 -121.575,172.159 -151.514,174.984c-23.627,2.229 -622.443,0.657 -676.569,0.515c-96.174,-0.253 -171.045,-68.153 -171.058,-172.896c-0.007,-52.455 -0.082,-641.557 0,-655.686c0.639,-109.25 81.554,-156.137 131.939,-166.924c19.11,-4.091 19.238,-3.634 689.603,-3.634Zm-476.153,832.618l307.028,0c94.502,-0 150.148,8.498 193.982,-46.346c31.983,-40.017 27.831,-83.062 27.85,-90.125c0.11,-38.717 1.081,-382.059 -0.002,-483.961c-0.95,-89.387 -70.415,-129.487 -128.165,-128.923c-50.41,0.493 -491.299,-0.083 -502.227,0.278c-53.519,1.769 -99.313,41.076 -113.311,87.355c-6.432,21.266 -5.653,21.566 -5.653,335.309c0,230.547 -2.987,233.314 18.691,267.282c44.367,69.518 106.616,59.13 201.806,59.13Zm184.737,-707.725c17.749,0.203 17.673,0.179 156.116,0.179c47.382,-0 118.378,-11.086 141.923,56.307c5.028,14.392 4.452,14.805 4.452,480.944c0,18.191 13.234,106.81 -63.397,126.305c-10.448,2.658 -10.537,2.359 -468.064,2.359c-26.871,0 -111.443,12.728 -131.721,-61.268c-3.286,-11.991 -2.911,-12.176 -2.911,-444.676c0,-78.27 -8.696,-126.275 51.3,-153.68c16.147,-7.376 16.894,-6.469 312.302,-6.469Zm177.454,233.276c0.415,-1.385 0.625,-2.824 0.625,-4.27c0,-8.167 -6.72,-14.887 -14.887,-14.887c-3.946,0 -7.735,1.569 -10.525,4.359l-93.684,93.684l-183.006,-183.006c-2.791,-2.791 -6.58,-4.36 -10.527,-4.36c-6.557,0 -12.378,4.332 -14.26,10.613l-89.322,297.741c-0.415,1.385 -0.625,2.824 -0.625,4.27c0,8.167 6.72,14.887 14.887,14.887c3.946,0 7.735,-1.569 10.525,-4.359l93.684,-93.684l183.006,183.006c2.791,2.791 6.58,4.36 10.527,4.36c6.557,0 12.378,-4.332 14.26,-10.613l89.322,-297.741Z" style="fill:#fff;"/></svg>